<?xml version="1.0" encoding="UTF-8" standalone="no"?>
<!-- Created with Inkscape (http://www.inkscape.org/) -->

<svg
   xmlns:dc="http://purl.org/dc/elements/1.1/"
   xmlns:cc="http://creativecommons.org/ns#"
   xmlns:rdf="http://www.w3.org/1999/02/22-rdf-syntax-ns#"
   xmlns:svg="http://www.w3.org/2000/svg"
   xmlns="http://www.w3.org/2000/svg"
   xmlns:sodipodi="http://sodipodi.sourceforge.net/DTD/sodipodi-0.dtd"
   xmlns:inkscape="http://www.inkscape.org/namespaces/inkscape"
   width="744.09448819"
   height="1052.3622047"
   id="svg2"
   version="1.1"
   inkscape:version="0.48.2 r9819"
   sodipodi:docname="goblin.svg">
  <defs
     id="defs4" />
  <sodipodi:namedview
     id="base"
     pagecolor="#ffffff"
     bordercolor="#666666"
     borderopacity="1.0"
     inkscape:pageopacity="0.0"
     inkscape:pageshadow="2"
     inkscape:zoom="2.8284272"
     inkscape:cx="106.01905"
     inkscape:cy="534.53687"
     inkscape:document-units="px"
     inkscape:current-layer="layer1"
     showgrid="false"
     inkscape:window-width="1366"
     inkscape:window-height="706"
     inkscape:window-x="-8"
     inkscape:window-y="-8"
     inkscape:window-maximized="1"
     showguides="true"
     inkscape:guide-bbox="true">
    <sodipodi:guide
       orientation="0,1"
       position="275.51911,632.86057"
       id="guide3893" />
  </sodipodi:namedview>
  <metadata
     id="metadata7">
    <rdf:RDF>
      <cc:Work
         rdf:about="">
        <dc:format>image/svg+xml</dc:format>
        <dc:type
           rdf:resource="http://purl.org/dc/dcmitype/StillImage" />
        <dc:title></dc:title>
      </cc:Work>
    </rdf:RDF>
  </metadata>
  <g
     inkscape:label="Layer 1"
     inkscape:groupmode="layer"
     id="layer1">
    <path
       style="fill:#999999;fill-opacity:1;fill-rule:nonzero;stroke:#000000;stroke-width:1.97150195;stroke-linecap:round;stroke-linejoin:round;stroke-miterlimit:4;stroke-opacity:1"
       d="m 63.364177,486.16248 12.571687,0 c 5.029017,0 8.937369,0.66019 9.077647,1.45263 2.291982,12.94758 1.436619,21.17415 0,28.52883 -0.154281,0.78983 -4.04863,1.45263 -9.077647,1.45263 l -12.571687,0 c -5.029017,0 -8.951908,-0.65775 -9.077648,-1.45263 -2.488398,-15.73061 -1.179444,-21.96783 0,-28.52883 0.142386,-0.79206 4.048631,-1.45263 9.077648,-1.45263 z"
       id="rect3894"
       inkscape:connector-curvature="0"
       sodipodi:nodetypes="sssssssss" />
    <path
       style="fill:#ffccaa;fill-opacity:1;fill-rule:nonzero;stroke:#000000;stroke-width:2.84075451;stroke-linecap:round;stroke-linejoin:round;stroke-miterlimit:4;stroke-opacity:1"
       d="m 65.635539,466.86218 8.230032,0 c 6.537528,0 11.524301,1.07222 11.800593,2.32005 1.502682,6.78663 2.064988,13.57327 0,20.3599 -0.370343,1.21714 -5.711392,4.32005 -12.24892,4.32005 l -7.781705,0 c -6.537529,0 -11.566806,-3.06146 -11.800593,-4.32005 -2.440173,-13.13662 -1.016226,-16.21776 0,-20.3599 0.304156,-1.23974 5.263064,-2.32005 11.800593,-2.32005 z"
       id="rect3891"
       inkscape:connector-curvature="0"
       sodipodi:nodetypes="sssssssss" />
    <path
       sodipodi:type="arc"
       style="fill:#ffccaa;fill-opacity:1;fill-rule:nonzero;stroke:#000000;stroke-width:3;stroke-linecap:round;stroke-linejoin:round;stroke-miterlimit:4;stroke-opacity:1;stroke-dasharray:none"
       id="path3889"
       sodipodi:cx="57"
       sodipodi:cy="495.11218"
       sodipodi:rx="15"
       sodipodi:ry="13.75"
       d="m 72,495.11218 a 15,13.75 0 1 1 -30,0 15,13.75 0 1 1 30,0 z"
       transform="matrix(1.1382895,0,0,1.0963158,-62.632501,-42.187109)" />
    <g
       id="g3929"
       transform="translate(-8.8324901,0)"
       inkscape:export-filename="C:\Users\Mike\Documents\html5\TileTest\assets\goblin.png"
       inkscape:export-xdpi="90"
       inkscape:export-ydpi="90">
      <rect
         y="441.71933"
         x="202.64285"
         height="32"
         width="32"
         id="rect3962"
         style="fill:none;stroke:none" />
      <g
         style="stroke-width:3.51805782;stroke-miterlimit:4;stroke-dasharray:none"
         transform="matrix(0.35084421,0,0,0.23029248,104.7343,342.976)"
         id="g3955">
        <path
           sodipodi:nodetypes="sssss"
           inkscape:connector-curvature="0"
           id="path3793"
           d="m 351.5331,534.65901 c 0,11.43678 -3.52732,18.68782 -11.61676,18.68782 -8.08943,0 -3.53553,-15.33227 -3.53553,-26.76905 0,-11.43679 -4.5539,-14.64721 3.53553,-14.64721 8.08944,0 11.61676,11.29165 11.61676,22.72844 z"
           style="fill:#52b052;fill-opacity:1;fill-rule:nonzero;stroke:#000000;stroke-width:3.51805782;stroke-miterlimit:4;stroke-opacity:1;stroke-dasharray:none" />
        <path
           style="fill:#52b052;fill-opacity:1;fill-rule:nonzero;stroke:#000000;stroke-width:3.51805782;stroke-miterlimit:4;stroke-opacity:1;stroke-dasharray:none"
           d="m 314.61405,499.77427 c -3.63168,0 -6.5625,3.36542 -6.5625,7.5625 l 0,26.1875 c 0,1.46566 0.35004,2.81169 0.96875,3.96875 -0.54212,0.3704 -0.9375,1.03209 -0.9375,1.8125 l 0,25.03125 c 0,1.17902 0.84924,2.15625 1.875,2.15625 l 9.59375,0 c 2.92292,-12.09681 5.78974,-24.97192 11,0 l 10.03125,0 c 1.02576,0 1.84375,-0.97723 1.84375,-2.15625 l 0,-25.03125 c 0,-0.78041 -0.36413,-1.4421 -0.90625,-1.8125 0.61871,-1.15706 0.96875,-2.50309 0.96875,-3.96875 l 0,-26.1875 c 0,-4.19708 -2.93082,-7.5625 -6.5625,-7.5625 l -21.3125,0 z"
           id="rect3887"
           inkscape:connector-curvature="0" />
        <path
           inkscape:connector-curvature="0"
           style="fill:#52b052;fill-opacity:1;fill-rule:nonzero;stroke:#000000;stroke-width:3.51805782;stroke-linecap:round;stroke-linejoin:round;stroke-miterlimit:4;stroke-opacity:1;stroke-dasharray:none"
           d="m 334.875,444.25 c -8.25368,0 -4.5729,8.09854 -3.71875,19.625 -1.58123,-0.28521 -3.2116,-0.4375 -4.875,-0.4375 -4.41314,0 -8.56183,1.07657 -12.25,2.9375 -3.60854,-10.43287 -14.94282,-18.09375 -22.59375,-18.09375 -9.20522,0 -3.53125,10.08165 -3.53125,23.75 0,10.92756 4.7583,19.54179 11.375,22.5625 1.88194,13.22721 13.25283,23.40625 27,23.40625 15.06308,0 27.28125,-12.21817 27.28125,-27.28125 0,-0.20911 0.005,-0.41702 0,-0.625 4.2602,-3.19772 5.03125,-10.85834 5.03125,-21.09375 0,-13.66835 -14.51354,-24.75 -23.71875,-24.75 z"
           id="path2985" />
        <path
           style="fill:#b3b3b3;fill-opacity:1;fill-rule:nonzero;stroke:#000000;stroke-width:3.51805782;stroke-linecap:round;stroke-linejoin:round;stroke-miterlimit:4;stroke-opacity:1;stroke-dasharray:none"
           d="m 309.10667,534.40529 39.99876,1.01015 10.10152,13.52439 -50.10028,1.01015 z"
           id="rect3893"
           inkscape:connector-curvature="0"
           sodipodi:nodetypes="ccccc" />
        <path
           style="fill:#52b052;fill-opacity:1;fill-rule:nonzero;stroke:#000000;stroke-width:3.51805782;stroke-miterlimit:4;stroke-opacity:1;stroke-dasharray:none"
           d="m 309.10667,525.56765 c 0,11.43678 6.57421,28.78935 -1.51523,28.78935 -8.08943,0 -15.65736,-8.2612 -15.65736,-19.69798 0,-11.43679 7.56793,-21.71828 15.65736,-21.71828 8.08944,0 1.51523,1.19012 1.51523,12.62691 z"
           id="path3786"
           inkscape:connector-curvature="0"
           sodipodi:nodetypes="sssss" />
      </g>
    </g>
    <g
       id="g3900"
       transform="translate(-8.8324901,0)"
       inkscape:export-filename="C:\Users\Mike\Documents\html5\TileTest\assets\goblin.png"
       inkscape:export-xdpi="90"
       inkscape:export-ydpi="90">
      <rect
         style="fill:none;stroke:none"
         id="rect4026"
         width="32"
         height="32"
         x="239.64285"
         y="441.71933" />
      <path
         sodipodi:nodetypes="sssss"
         inkscape:connector-curvature="0"
         id="path3966"
         d="m 265.25241,465.99351 c 0,2.6338 -1.23754,4.30366 -4.07567,4.30366 -2.83813,0 -1.24042,-3.5309 -1.24042,-6.16471 0,-2.6338 -1.59771,-3.37314 1.24042,-3.37314 2.83813,0 4.07567,2.60038 4.07567,5.23419 z"
         style="fill:#52b052;fill-opacity:1;fill-rule:nonzero;stroke:#000000;stroke-width:1;stroke-miterlimit:4;stroke-opacity:1;stroke-dasharray:none" />
      <path
         sodipodi:nodetypes="ssscsssccssscssss"
         style="fill:#52b052;fill-opacity:1;fill-rule:nonzero;stroke:#000000;stroke-width:1;stroke-miterlimit:4;stroke-opacity:1;stroke-dasharray:none"
         d="m 251.66823,459.34506 c -1.27416,0 -2.30242,0.77503 -2.30242,1.74158 l 0,6.03079 c 0,0.33753 0.12281,0.64751 0.33988,0.91397 -0.1902,0.0853 -0.32891,0.23768 -0.32891,0.41741 l 0,4.88062 c 0,0.27152 -0.14393,-0.0652 0.21589,-0.0716 l 3.55531,-0.0631 c 1.02549,-2.7858 1.83741,-7.53918 3.6654,-1.78834 l 3.92119,-0.0446 c 0.35986,-0.004 0.64185,-0.2251 0.64687,-0.49657 l 0.0446,-2.41629 c 0.003,-0.1797 -0.12775,-0.33211 -0.31795,-0.41741 0.21707,-0.26646 0.33988,-0.57644 0.33988,-0.91397 l 0,-6.03079 c 0,-0.96655 -1.02826,-1.74158 -2.30241,-1.74158 z"
         id="path3968"
         inkscape:connector-curvature="0" />
      <path
         inkscape:connector-curvature="0"
         style="fill:#52b052;fill-opacity:1;fill-rule:nonzero;stroke:#000000;stroke-width:1;stroke-linecap:round;stroke-linejoin:round;stroke-miterlimit:4;stroke-opacity:1;stroke-dasharray:none"
         d="m 259.40801,445.17299 c -2.89575,0 -1.60437,1.86504 -1.3047,4.51949 -0.55476,-0.0657 -1.12677,-0.10075 -1.71036,-0.10075 -1.54833,0 -3.00387,0.24793 -4.29784,0.67649 -1.26604,-2.40262 -5.24261,-4.16686 -7.92689,-4.16686 -3.2296,0 -1.23892,2.32173 -1.23892,5.46945 0,2.51653 1.66942,4.50032 3.99085,5.19597 0.66027,3.04613 4.64968,5.39028 9.4728,5.39028 5.28479,0 9.57147,-2.81375 9.57147,-6.28266 0,-0.0482 0.002,-0.096 0,-0.14393 1.49466,-0.73642 1.76518,-2.5006 1.76518,-4.85774 0,-3.14772 -5.09199,-5.69974 -8.32159,-5.69974 z"
         id="path3970" />
      <path
         style="fill:#b3b3b3;fill-opacity:1;fill-rule:nonzero;stroke:#000000;stroke-width:1;stroke-linecap:round;stroke-linejoin:round;stroke-miterlimit:4;stroke-opacity:1;stroke-dasharray:none"
         d="m 250.36735,465.93508 14.03333,0.23263 3.54406,3.11456 -17.57739,0.23263 z"
         id="path3972"
         inkscape:connector-curvature="0"
         sodipodi:nodetypes="ccccc" />
      <path
         style="fill:#52b052;fill-opacity:1;fill-rule:nonzero;stroke:#000000;stroke-width:1;stroke-miterlimit:4;stroke-opacity:1;stroke-dasharray:none"
         d="m 250.36735,463.89984 c 0,2.6338 2.30652,6.62997 -0.53161,6.62997 -2.83813,0 -5.4933,-1.90249 -5.4933,-4.5363 0,-2.63381 2.65517,-5.00155 5.4933,-5.00155 2.83813,0 0.53161,0.27407 0.53161,2.90788 z"
         id="path3974"
         inkscape:connector-curvature="0"
         sodipodi:nodetypes="sssss" />
    </g>
    <g
       id="g3878"
       transform="translate(-8.8324901,0)"
       inkscape:export-filename="C:\Users\Mike\Documents\html5\TileTest\assets\goblin.png"
       inkscape:export-xdpi="90"
       inkscape:export-ydpi="90">
      <rect
         y="441.71933"
         x="276.64285"
         height="32"
         width="32"
         id="rect4028"
         style="fill:none;stroke:none" />
      <path
         inkscape:connector-curvature="0"
         id="path3985"
         d="m 289.19531,458.09083 c -1.27416,0 -2.30242,0.77503 -2.30242,1.74158 l 0,6.03079 c 0,0.33753 0.12281,0.64751 0.33988,0.91397 -0.1902,0.0853 -0.33129,0.2377 -0.32891,0.41741 l 0.0316,2.3868 c 0.004,0.2715 -0.14395,0.28065 0.21589,0.2756 l 4.50233,-0.0631 c 1.02549,-2.7858 0.60628,-2.10961 2.43427,3.6412 l 4.17373,-0.013 c 0.35988,-10e-4 0.64476,-0.22506 0.64687,-0.49657 l 0.0446,-5.73085 c 0.001,-0.17972 -0.12775,-0.33211 -0.31795,-0.41741 0.21707,-0.26646 0.33988,-0.57644 0.33988,-0.91397 l 0,-6.03079 c 0,-0.96655 -1.02826,-1.74158 -2.30241,-1.74158 z"
         style="fill:#52b052;fill-opacity:1;fill-rule:nonzero;stroke:#000000;stroke-width:1;stroke-miterlimit:4;stroke-opacity:1;stroke-dasharray:none"
         sodipodi:nodetypes="ssscsssccssscssss" />
      <path
         style="fill:#52b052;fill-opacity:1;fill-rule:nonzero;stroke:#000000;stroke-width:1;stroke-miterlimit:4;stroke-opacity:1;stroke-dasharray:none"
         d="m 302.80294,464.92311 c 0,2.6338 -1.23754,4.30366 -4.07567,4.30366 -2.83813,0 -1.24042,-3.5309 -1.24042,-6.16471 0,-2.6338 -1.59771,-3.37314 1.24042,-3.37314 2.83813,0 4.07567,2.60038 4.07567,5.23419 z"
         id="path3996"
         inkscape:connector-curvature="0"
         sodipodi:nodetypes="sssss" />
      <path
         id="path4000"
         d="m 296.95854,444.10259 c -2.89575,0 -1.60437,1.86504 -1.3047,4.51949 -0.55476,-0.0657 -1.12677,-0.10075 -1.71036,-0.10075 -1.54833,0 -3.00387,0.24793 -4.29784,0.67649 -1.26604,-2.40262 -5.24261,-4.16686 -7.92689,-4.16686 -3.2296,0 -1.23892,2.32173 -1.23892,5.46945 0,2.51653 1.66942,4.50032 3.99085,5.19597 0.66027,3.04613 4.64968,5.39028 9.4728,5.39028 5.28479,0 9.57147,-2.81375 9.57147,-6.28266 0,-0.0482 0.002,-0.096 0,-0.14393 1.49466,-0.73642 1.76518,-2.5006 1.76518,-4.85774 0,-3.14772 -5.09199,-5.69974 -8.32159,-5.69974 z"
         style="fill:#52b052;fill-opacity:1;fill-rule:nonzero;stroke:#000000;stroke-width:1;stroke-linecap:round;stroke-linejoin:round;stroke-miterlimit:4;stroke-opacity:1;stroke-dasharray:none"
         inkscape:connector-curvature="0" />
      <path
         sodipodi:nodetypes="ccccc"
         inkscape:connector-curvature="0"
         id="path4002"
         d="m 287.91788,464.86468 14.03333,0.23263 3.54406,3.11456 -17.57739,0.23263 z"
         style="fill:#b3b3b3;fill-opacity:1;fill-rule:nonzero;stroke:#000000;stroke-width:1;stroke-linecap:round;stroke-linejoin:round;stroke-miterlimit:4;stroke-opacity:1;stroke-dasharray:none" />
      <path
         sodipodi:nodetypes="sssss"
         inkscape:connector-curvature="0"
         id="path4004"
         d="m 287.91788,462.82944 c 0,2.6338 2.30652,6.62997 -0.53161,6.62997 -2.83813,0 -5.4933,-1.90249 -5.4933,-4.5363 0,-2.63381 2.65517,-5.00155 5.4933,-5.00155 2.83813,0 0.53161,0.27407 0.53161,2.90788 z"
         style="fill:#52b052;fill-opacity:1;fill-rule:nonzero;stroke:#000000;stroke-width:1;stroke-miterlimit:4;stroke-opacity:1;stroke-dasharray:none" />
    </g>
    <g
       id="g3838"
       transform="translate(-8.8324901,0.21576619)"
       inkscape:export-filename="C:\Users\Mike\Documents\html5\TileTest\assets\goblin.png"
       inkscape:export-xdpi="90"
       inkscape:export-ydpi="90">
      <rect
         transform="scale(-1,1)"
         style="fill:none;stroke:none"
         id="rect4157"
         width="32"
         height="32"
         x="-234.64285"
         y="478.71933" />
      <path
         sodipodi:nodetypes="sssss"
         inkscape:connector-curvature="0"
         id="path4161"
         d="m 209.21806,503.10396 c 0,2.6338 1.23754,4.30366 4.07567,4.30366 2.83813,0 1.24042,-3.5309 1.24042,-6.16471 0,-2.6338 1.59771,-3.37314 -1.24042,-3.37314 -2.83813,0 -4.07567,2.60038 -4.07567,5.23419 z"
         style="fill:#52b052;fill-opacity:1;fill-rule:nonzero;stroke:#000000;stroke-width:1;stroke-miterlimit:4;stroke-opacity:1;stroke-dasharray:none" />
      <path
         style="fill:#52b052;fill-opacity:1;fill-rule:nonzero;stroke:#000000;stroke-width:1;stroke-miterlimit:4;stroke-opacity:1;stroke-dasharray:none"
         d="m 222.17089,495.07027 c 1.27416,0 2.30242,0.77503 2.30242,1.74158 l 0,6.03079 c 0,0.33753 -0.12281,0.64751 -0.33988,0.91397 0.1902,0.0853 0.32891,0.23768 0.32891,0.41741 l 0,5.7645 c 0,0.27152 -0.29795,0.49657 -0.65783,0.49657 l -3.36591,0 c -1.02549,-2.7858 -2.0313,-5.75084 -3.85929,0 l -3.5194,0 c -0.35989,0 -0.64687,-0.22505 -0.64687,-0.49657 l 0,-5.7645 c 0,-0.17973 0.12775,-0.33211 0.31795,-0.41741 -0.21707,-0.26646 -0.33988,-0.57644 -0.33988,-0.91397 l 0,-6.03079 c 0,-0.96655 1.02826,-1.74158 2.30241,-1.74158 l 7.47737,0 z"
         id="path4163"
         inkscape:connector-curvature="0" />
      <path
         inkscape:connector-curvature="0"
         style="fill:#52b052;fill-opacity:1;fill-rule:nonzero;stroke:#000000;stroke-width:1;stroke-linecap:round;stroke-linejoin:round;stroke-miterlimit:4;stroke-opacity:1;stroke-dasharray:none"
         d="m 215.06246,482.28344 c 2.89575,0 1.60437,1.86504 1.3047,4.51949 0.55476,-0.0657 1.12677,-0.10075 1.71036,-0.10075 1.54833,0 3.00387,0.24793 4.29784,0.67649 1.26604,-2.40262 5.24261,-4.16686 7.92689,-4.16686 3.2296,0 1.23892,2.32173 1.23892,5.46945 0,2.51653 -1.66942,4.50032 -3.99085,5.19597 -0.66027,3.04613 -4.64968,5.39028 -9.4728,5.39028 -5.28479,0 -9.57147,-2.81375 -9.57147,-6.28266 0,-0.0482 -0.002,-0.096 0,-0.14393 -1.49466,-0.73642 -1.76518,-2.5006 -1.76518,-4.85774 0,-3.14772 5.09199,-5.69974 8.32159,-5.69974 z"
         id="path4165" />
      <path
         style="fill:#b3b3b3;fill-opacity:1;fill-rule:nonzero;stroke:#000000;stroke-width:1;stroke-linecap:round;stroke-linejoin:round;stroke-miterlimit:4;stroke-opacity:1;stroke-dasharray:none"
         d="m 224.10312,503.04553 -14.03333,0.23263 -3.54406,3.11456 17.57739,0.23263 z"
         id="path4167"
         inkscape:connector-curvature="0"
         sodipodi:nodetypes="ccccc" />
      <path
         style="fill:#52b052;fill-opacity:1;fill-rule:nonzero;stroke:#000000;stroke-width:1;stroke-miterlimit:4;stroke-opacity:1;stroke-dasharray:none"
         d="m 224.10312,501.01029 c 0,2.6338 -2.30652,6.62997 0.53161,6.62997 2.83813,0 5.4933,-1.90249 5.4933,-4.5363 0,-2.63381 -2.65517,-5.00155 -5.4933,-5.00155 -2.83813,0 -0.53161,0.27407 -0.53161,2.90788 z"
         id="path4169"
         inkscape:connector-curvature="0"
         sodipodi:nodetypes="sssss" />
    </g>
    <g
       id="g3830"
       transform="translate(-8.8324901,0.21576619)"
       inkscape:export-filename="C:\Users\Mike\Documents\html5\TileTest\assets\goblin.png"
       inkscape:export-xdpi="90"
       inkscape:export-ydpi="90">
      <rect
         transform="scale(-1,1)"
         y="478.71933"
         x="-271.64285"
         height="32"
         width="32"
         id="rect4173"
         style="fill:none;stroke:none" />
      <path
         style="fill:#52b052;fill-opacity:1;fill-rule:nonzero;stroke:#000000;stroke-width:1;stroke-miterlimit:4;stroke-opacity:1;stroke-dasharray:none"
         d="m 246.03331,502.99352 c 0,2.6338 1.23754,4.30366 4.07567,4.30366 2.83813,0 1.24042,-3.5309 1.24042,-6.16471 0,-2.6338 1.59771,-3.37314 -1.24042,-3.37314 -2.83813,0 -4.07567,2.60038 -4.07567,5.23419 z"
         id="path4177"
         inkscape:connector-curvature="0"
         sodipodi:nodetypes="sssss" />
      <path
         inkscape:connector-curvature="0"
         id="path4179"
         d="m 259.61749,496.34507 c 1.27416,0 2.30242,0.77503 2.30242,1.74158 l 0,6.03079 c 0,0.33753 -0.12281,0.64751 -0.33988,0.91397 0.1902,0.0853 0.32891,0.23768 0.32891,0.41741 l 0,4.88062 c 0,0.27152 0.14393,-0.0652 -0.21589,-0.0716 l -3.55531,-0.0631 c -1.02549,-2.7858 -1.83741,-7.53918 -3.6654,-1.78834 l -3.92119,-0.0446 c -0.35986,-0.004 -0.64185,-0.2251 -0.64687,-0.49657 l -0.0446,-2.41629 c -0.003,-0.1797 0.12775,-0.33211 0.31795,-0.41741 -0.21707,-0.26646 -0.33988,-0.57644 -0.33988,-0.91397 l 0,-6.03079 c 0,-0.96655 1.02826,-1.74158 2.30241,-1.74158 z"
         style="fill:#52b052;fill-opacity:1;fill-rule:nonzero;stroke:#000000;stroke-width:1;stroke-miterlimit:4;stroke-opacity:1;stroke-dasharray:none"
         sodipodi:nodetypes="ssscsssccssscssss" />
      <path
         id="path4181"
         d="m 251.87771,482.173 c 2.89575,0 1.60437,1.86504 1.3047,4.51949 0.55476,-0.0657 1.12677,-0.10075 1.71036,-0.10075 1.54833,0 3.00387,0.24793 4.29784,0.67649 1.26604,-2.40262 5.24261,-4.16686 7.92689,-4.16686 3.2296,0 1.23892,2.32173 1.23892,5.46945 0,2.51653 -1.66942,4.50032 -3.99085,5.19597 -0.66027,3.04613 -4.64968,5.39028 -9.4728,5.39028 -5.28479,0 -9.57147,-2.81375 -9.57147,-6.28266 0,-0.0482 -0.002,-0.096 0,-0.14393 -1.49466,-0.73642 -1.76518,-2.5006 -1.76518,-4.85774 0,-3.14772 5.09199,-5.69974 8.32159,-5.69974 z"
         style="fill:#52b052;fill-opacity:1;fill-rule:nonzero;stroke:#000000;stroke-width:1;stroke-linecap:round;stroke-linejoin:round;stroke-miterlimit:4;stroke-opacity:1;stroke-dasharray:none"
         inkscape:connector-curvature="0" />
      <path
         sodipodi:nodetypes="ccccc"
         inkscape:connector-curvature="0"
         id="path4183"
         d="m 260.91837,502.93509 -14.03333,0.23263 -3.54406,3.11456 17.57739,0.23263 z"
         style="fill:#b3b3b3;fill-opacity:1;fill-rule:nonzero;stroke:#000000;stroke-width:1;stroke-linecap:round;stroke-linejoin:round;stroke-miterlimit:4;stroke-opacity:1;stroke-dasharray:none" />
      <path
         sodipodi:nodetypes="sssss"
         inkscape:connector-curvature="0"
         id="path4185"
         d="m 260.91837,500.89985 c 0,2.6338 -2.30652,6.62997 0.53161,6.62997 2.83813,0 5.4933,-1.90249 5.4933,-4.5363 0,-2.63381 -2.65517,-5.00155 -5.4933,-5.00155 -2.83813,0 -0.53161,0.27407 -0.53161,2.90788 z"
         style="fill:#52b052;fill-opacity:1;fill-rule:nonzero;stroke:#000000;stroke-width:1;stroke-miterlimit:4;stroke-opacity:1;stroke-dasharray:none" />
    </g>
    <g
       id="g3858"
       transform="translate(-8.8324901,0.21576619)"
       inkscape:export-filename="C:\Users\Mike\Documents\html5\TileTest\assets\goblin.png"
       inkscape:export-xdpi="90"
       inkscape:export-ydpi="90">
      <rect
         transform="scale(-1,1)"
         style="fill:none;stroke:none"
         id="rect4189"
         width="32"
         height="32"
         x="-308.64285"
         y="478.71933" />
      <path
         sodipodi:nodetypes="ssscsssccssscssss"
         style="fill:#52b052;fill-opacity:1;fill-rule:nonzero;stroke:#000000;stroke-width:1;stroke-miterlimit:4;stroke-opacity:1;stroke-dasharray:none"
         d="m 296.09041,495.09084 c 1.27416,0 2.30242,0.77504 2.30242,1.74158 l 0,6.0308 c 0,0.33753 -0.12281,0.64751 -0.33988,0.91397 0.1902,0.0853 0.33129,0.2377 0.32891,0.41741 l -0.0316,2.3868 c -0.004,0.2715 0.14395,0.28065 -0.21589,0.2756 l -4.50233,-0.0631 c -1.02549,-2.7858 -0.60628,-2.10961 -2.43427,3.6412 l -4.17373,-0.013 c -0.35988,-10e-4 -0.64476,-0.22506 -0.64687,-0.49657 l -0.0446,-5.73085 c -10e-4,-0.17972 0.12775,-0.33211 0.31795,-0.41741 -0.21707,-0.26646 -0.33988,-0.57644 -0.33988,-0.91397 l 0,-6.03079 c 0,-0.96655 1.02826,-1.74158 2.30241,-1.74158 z"
         id="path4193"
         inkscape:connector-curvature="0" />
      <path
         sodipodi:nodetypes="sssss"
         inkscape:connector-curvature="0"
         id="path4195"
         d="m 282.48278,501.92313 c 0,2.6338 1.23754,4.30365 4.07567,4.30365 2.83813,0 1.24042,-3.53089 1.24042,-6.16471 0,-2.6338 1.59771,-3.37313 -1.24042,-3.37313 -2.83813,0 -4.07567,2.60037 -4.07567,5.23419 z"
         style="fill:#52b052;fill-opacity:1;fill-rule:nonzero;stroke:#000000;stroke-width:1;stroke-miterlimit:4;stroke-opacity:1;stroke-dasharray:none" />
      <path
         inkscape:connector-curvature="0"
         style="fill:#52b052;fill-opacity:1;fill-rule:nonzero;stroke:#000000;stroke-width:1;stroke-linecap:round;stroke-linejoin:round;stroke-miterlimit:4;stroke-opacity:1;stroke-dasharray:none"
         d="m 288.32718,481.1026 c 2.89575,0 1.60437,1.86504 1.3047,4.51949 0.55476,-0.0657 1.12677,-0.10075 1.71036,-0.10075 1.54833,0 3.00387,0.24793 4.29784,0.67649 1.26604,-2.40262 5.24261,-4.16686 7.92689,-4.16686 3.2296,0 1.23892,2.32174 1.23892,5.46945 0,2.51653 -1.66942,4.50032 -3.99085,5.19597 -0.66027,3.04613 -4.64968,5.39029 -9.4728,5.39029 -5.28479,0 -9.57147,-2.81376 -9.57147,-6.28267 0,-0.0482 -0.002,-0.096 0,-0.14393 -1.49466,-0.73642 -1.76518,-2.5006 -1.76518,-4.85774 0,-3.14772 5.09199,-5.69974 8.32159,-5.69974 z"
         id="path4197" />
      <path
         style="fill:#b3b3b3;fill-opacity:1;fill-rule:nonzero;stroke:#000000;stroke-width:1;stroke-linecap:round;stroke-linejoin:round;stroke-miterlimit:4;stroke-opacity:1;stroke-dasharray:none"
         d="m 297.36784,501.86469 -14.03333,0.23263 -3.54406,3.11456 17.57739,0.23263 z"
         id="path4199"
         inkscape:connector-curvature="0"
         sodipodi:nodetypes="ccccc" />
      <path
         style="fill:#52b052;fill-opacity:1;fill-rule:nonzero;stroke:#000000;stroke-width:1;stroke-miterlimit:4;stroke-opacity:1;stroke-dasharray:none"
         d="m 297.36784,499.82945 c 0,2.6338 -2.30652,6.62997 0.53161,6.62997 2.83813,0 5.4933,-1.90249 5.4933,-4.53629 0,-2.63381 -2.65517,-5.00155 -5.4933,-5.00155 -2.83813,0 -0.53161,0.27407 -0.53161,2.90787 z"
         id="path4201"
         inkscape:connector-curvature="0"
         sodipodi:nodetypes="sssss" />
    </g>
    <g
       id="g3979"
       transform="translate(-5.0444347,-1.0773382)"
       inkscape:export-filename="C:\Users\Mike\Documents\html5\TileTest\assets\goblin.png"
       inkscape:export-xdpi="90"
       inkscape:export-ydpi="90">
      <rect
         style="fill:none;stroke:none"
         id="rect3915"
         width="32"
         height="32"
         x="198.8548"
         y="517.22821" />
      <g
         transform="translate(0.80160014,3.8248404)"
         id="g3971">
        <path
           style="fill:#52b052;fill-opacity:1;fill-rule:nonzero;stroke:#000000;stroke-width:1;stroke-miterlimit:4;stroke-opacity:1;stroke-dasharray:none"
           d="m 224.27958,537.57224 c 0,2.6338 -1.23754,4.30366 -4.07567,4.30366 -2.83813,0 -1.24042,-3.5309 -1.24042,-6.16471 0,-2.6338 -1.59771,-3.37314 1.24042,-3.37314 2.83813,0 4.07567,2.60038 4.07567,5.23419 z"
           id="path3919"
           inkscape:connector-curvature="0"
           sodipodi:nodetypes="sssss" />
        <path
           inkscape:connector-curvature="0"
           id="path3921"
           d="m 211.32674,529.53855 c -1.27415,0 -2.30241,0.77503 -2.30241,1.74158 l 0,6.03079 c 0,0.33753 0.12281,0.64751 0.33988,0.91397 -0.1902,0.0853 -0.32892,0.23768 -0.32892,0.41741 l 0,5.7645 c 0,0.27152 0.29795,0.49657 0.65784,0.49657 l 3.36591,0 c 1.02549,-2.7858 2.03129,-5.75084 3.85928,0 l 3.51941,0 c 0.35988,0 0.64687,-0.22505 0.64687,-0.49657 l 0,-5.7645 c 0,-0.17973 -0.12775,-0.33211 -0.31795,-0.41741 0.21707,-0.26646 0.33988,-0.57644 0.33988,-0.91397 l 0,-6.03079 c 0,-0.96655 -1.02826,-1.74158 -2.30242,-1.74158 l -7.47737,0 z"
           style="fill:#52b052;fill-opacity:1;fill-rule:nonzero;stroke:#000000;stroke-width:1;stroke-miterlimit:4;stroke-opacity:1;stroke-dasharray:none" />
        <path
           id="path3923"
           d="m 218.43518,516.75172 c -2.89575,0 -1.60437,1.86504 -1.3047,4.51949 -0.55477,-0.0657 -1.12677,-0.10075 -1.71037,-0.10075 -1.54832,0 -3.00386,0.24793 -4.29784,0.67649 -1.26603,-2.40262 -5.2426,-4.16686 -7.92688,-4.16686 -3.2296,0 -1.23892,2.32173 -1.23892,5.46945 0,2.51653 1.66942,4.50032 3.99085,5.19597 0.66027,3.04613 4.64968,5.39028 9.47279,5.39028 5.2848,0 9.57147,-2.81375 9.57147,-6.28266 0,-0.0482 0.002,-0.096 0,-0.14393 1.49467,-0.73642 1.76519,-2.5006 1.76519,-4.85774 0,-3.14772 -5.09199,-5.69974 -8.32159,-5.69974 z"
           style="fill:#52b052;fill-opacity:1;fill-rule:nonzero;stroke:#000000;stroke-width:1;stroke-linecap:round;stroke-linejoin:round;stroke-miterlimit:4;stroke-opacity:1;stroke-dasharray:none"
           inkscape:connector-curvature="0" />
        <g
           id="g3943"
           transform="matrix(-0.71122951,-0.70295988,0.70295988,-0.71122951,-45.95052,1009.5834)">
          <path
             style="fill:#b3b3b3;fill-opacity:1;fill-rule:nonzero;stroke:#000000;stroke-width:1;stroke-linecap:round;stroke-linejoin:round;stroke-miterlimit:4;stroke-opacity:1;stroke-dasharray:none"
             d="m 151.31074,520.08869 14.03334,0.23263 3.54406,3.11456 -17.5774,0.23263 z"
             id="path3925"
             inkscape:connector-curvature="0"
             sodipodi:nodetypes="ccccc" />
          <path
             style="fill:#52b052;fill-opacity:1;fill-rule:nonzero;stroke:#000000;stroke-width:1;stroke-miterlimit:4;stroke-opacity:1;stroke-dasharray:none"
             d="m 151.31074,518.05345 c 0,2.6338 2.30653,6.62997 -0.53161,6.62997 -2.83813,0 -5.49329,-1.90249 -5.49329,-4.5363 0,-2.63381 2.65516,-5.00155 5.49329,-5.00155 2.83814,0 0.53161,0.27407 0.53161,2.90788 z"
             id="path3927"
             inkscape:connector-curvature="0"
             sodipodi:nodetypes="sssss" />
        </g>
      </g>
    </g>
    <g
       id="g4011"
       transform="translate(-6.1065838,-2.3818426)"
       inkscape:export-filename="C:\Users\Mike\Documents\html5\TileTest\assets\goblin.png"
       inkscape:export-xdpi="90"
       inkscape:export-ydpi="90">
      <rect
         y="518.53271"
         x="236.91695"
         height="32"
         width="32"
         id="rect3997"
         style="fill:none;stroke:none" />
      <g
         transform="translate(0.73048919,5.1293448)"
         id="g3989">
        <path
           sodipodi:nodetypes="sssss"
           inkscape:connector-curvature="0"
           id="path3947"
           d="m 262.41284,537.57224 c 0,2.6338 -1.23754,4.30366 -4.07567,4.30366 -2.83813,0 -1.24042,-3.5309 -1.24042,-6.16471 0,-2.6338 -1.59771,-3.37314 1.24042,-3.37314 2.83813,0 4.07567,2.60038 4.07567,5.23419 z"
           style="fill:#52b052;fill-opacity:1;fill-rule:nonzero;stroke:#000000;stroke-width:1;stroke-miterlimit:4;stroke-opacity:1;stroke-dasharray:none" />
        <path
           style="fill:#52b052;fill-opacity:1;fill-rule:nonzero;stroke:#000000;stroke-width:1;stroke-miterlimit:4;stroke-opacity:1;stroke-dasharray:none"
           d="m 249.46,529.53855 c -1.27415,0 -2.30241,0.77503 -2.30241,1.74158 l 0,6.03079 c 0,0.33753 0.12281,0.64751 0.33988,0.91397 -0.1902,0.0853 -0.32892,0.23768 -0.32892,0.41741 l 0,5.7645 c 0,0.27152 0.29795,0.49657 0.65784,0.49657 l 3.36591,0 c 1.02549,-2.7858 2.03129,-5.75084 3.85928,0 l 3.51941,0 c 0.35988,0 0.64687,-0.22505 0.64687,-0.49657 l 0,-5.7645 c 0,-0.17973 -0.12775,-0.33211 -0.31795,-0.41741 0.21707,-0.26646 0.33988,-0.57644 0.33988,-0.91397 l 0,-6.03079 c 0,-0.96655 -1.02826,-1.74158 -2.30242,-1.74158 l -7.47737,0 z"
           id="path3949"
           inkscape:connector-curvature="0" />
        <path
           inkscape:connector-curvature="0"
           style="fill:#52b052;fill-opacity:1;fill-rule:nonzero;stroke:#000000;stroke-width:1;stroke-linecap:round;stroke-linejoin:round;stroke-miterlimit:4;stroke-opacity:1;stroke-dasharray:none"
           d="m 256.56844,516.75172 c -2.89575,0 -1.60437,1.86504 -1.3047,4.51949 -0.55477,-0.0657 -1.12677,-0.10075 -1.71037,-0.10075 -1.54832,0 -3.00386,0.24793 -4.29784,0.67649 -1.26603,-2.40262 -5.2426,-4.16686 -7.92688,-4.16686 -3.2296,0 -1.23892,2.32173 -1.23892,5.46945 0,2.51653 1.66942,4.50032 3.99085,5.19597 0.66027,3.04613 4.64968,5.39028 9.47279,5.39028 5.2848,0 9.57147,-2.81375 9.57147,-6.28266 0,-0.0482 0.002,-0.096 0,-0.14393 1.49467,-0.73642 1.76519,-2.5006 1.76519,-4.85774 0,-3.14772 -5.09199,-5.69974 -8.32159,-5.69974 z"
           id="path3951" />
        <g
           transform="matrix(0.1007929,-0.99490743,0.99490743,0.1007929,-280.6796,632.29846)"
           id="g3953">
          <path
             sodipodi:nodetypes="ccccc"
             inkscape:connector-curvature="0"
             id="path3955"
             d="m 151.31074,520.08869 14.03334,0.23263 3.54406,3.11456 -17.5774,0.23263 z"
             style="fill:#b3b3b3;fill-opacity:1;fill-rule:nonzero;stroke:#000000;stroke-width:1;stroke-linecap:round;stroke-linejoin:round;stroke-miterlimit:4;stroke-opacity:1;stroke-dasharray:none" />
          <path
             sodipodi:nodetypes="sssss"
             inkscape:connector-curvature="0"
             id="path3957"
             d="m 151.31074,518.05345 c 0,2.6338 2.30653,6.62997 -0.53161,6.62997 -2.83813,0 -5.49329,-1.90249 -5.49329,-4.5363 0,-2.63381 2.65516,-5.00155 5.49329,-5.00155 2.83814,0 0.53161,0.27407 0.53161,2.90788 z"
             style="fill:#52b052;fill-opacity:1;fill-rule:nonzero;stroke:#000000;stroke-width:1;stroke-miterlimit:4;stroke-opacity:1;stroke-dasharray:none" />
        </g>
      </g>
    </g>
    <g
       id="g4021"
       transform="translate(-7.7449352,-0.74036313)"
       inkscape:export-filename="C:\Users\Mike\Documents\html5\TileTest\assets\goblin.png"
       inkscape:export-xdpi="90"
       inkscape:export-ydpi="90">
      <g
         transform="translate(-1.1638864,3.9929454)"
         id="g3999">
        <path
           style="fill:#52b052;fill-opacity:1;fill-rule:nonzero;stroke:#000000;stroke-width:1;stroke-miterlimit:4;stroke-opacity:1;stroke-dasharray:none"
           d="m 302.31387,537.06716 c 0,2.6338 -1.23754,4.30366 -4.07567,4.30366 -2.83813,0 -1.24042,-3.5309 -1.24042,-6.16471 0,-2.6338 -1.59771,-3.37314 1.24042,-3.37314 2.83813,0 4.07567,2.60038 4.07567,5.23419 z"
           id="path3959"
           inkscape:connector-curvature="0"
           sodipodi:nodetypes="sssss" />
        <path
           inkscape:connector-curvature="0"
           id="path3961"
           d="m 289.36103,529.03347 c -1.27415,0 -2.30241,0.77503 -2.30241,1.74158 l 0,6.03079 c 0,0.33753 0.12281,0.64751 0.33988,0.91397 -0.1902,0.0853 -0.32892,0.23768 -0.32892,0.41741 l 0,5.7645 c 0,0.27152 0.29795,0.49657 0.65784,0.49657 l 3.36591,0 c 1.02549,-2.7858 2.03129,-5.75084 3.85928,0 l 3.51941,0 c 0.35988,0 0.64687,-0.22505 0.64687,-0.49657 l 0,-5.7645 c 0,-0.17973 -0.12775,-0.33211 -0.31795,-0.41741 0.21707,-0.26646 0.33988,-0.57644 0.33988,-0.91397 l 0,-6.03079 c 0,-0.96655 -1.02826,-1.74158 -2.30242,-1.74158 l -7.47737,0 z"
           style="fill:#52b052;fill-opacity:1;fill-rule:nonzero;stroke:#000000;stroke-width:1;stroke-miterlimit:4;stroke-opacity:1;stroke-dasharray:none" />
        <path
           id="path3963"
           d="m 296.46947,516.24664 c -2.89575,0 -1.60437,1.86504 -1.3047,4.51949 -0.55477,-0.0657 -1.12677,-0.10075 -1.71037,-0.10075 -1.54832,0 -3.00386,0.24793 -4.29784,0.67649 -1.26603,-2.40262 -5.2426,-4.16686 -7.92688,-4.16686 -3.2296,0 -1.23892,2.32173 -1.23892,5.46945 0,2.51653 1.66942,4.50032 3.99085,5.19597 0.66027,3.04613 4.64968,5.39028 9.47279,5.39028 5.2848,0 9.57147,-2.81375 9.57147,-6.28266 0,-0.0482 0.002,-0.096 0,-0.14393 1.49467,-0.73642 1.76519,-2.5006 1.76519,-4.85774 0,-3.14772 -5.09199,-5.69974 -8.32159,-5.69974 z"
           style="fill:#52b052;fill-opacity:1;fill-rule:nonzero;stroke:#000000;stroke-width:1;stroke-linecap:round;stroke-linejoin:round;stroke-miterlimit:4;stroke-opacity:1;stroke-dasharray:none"
           inkscape:connector-curvature="0" />
        <g
           id="g3965"
           transform="matrix(0.69210325,-0.72179852,0.72179852,0.69210325,-188.64882,285.17074)">
          <path
             style="fill:#b3b3b3;fill-opacity:1;fill-rule:nonzero;stroke:#000000;stroke-width:1;stroke-linecap:round;stroke-linejoin:round;stroke-miterlimit:4;stroke-opacity:1;stroke-dasharray:none"
             d="m 151.31074,520.08869 14.03334,0.23263 3.54406,3.11456 -17.5774,0.23263 z"
             id="path3967"
             inkscape:connector-curvature="0"
             sodipodi:nodetypes="ccccc" />
          <path
             style="fill:#52b052;fill-opacity:1;fill-rule:nonzero;stroke:#000000;stroke-width:1;stroke-miterlimit:4;stroke-opacity:1;stroke-dasharray:none"
             d="m 151.31074,518.05345 c 0,2.6338 2.30653,6.62997 -0.53161,6.62997 -2.83813,0 -5.49329,-1.90249 -5.49329,-4.5363 0,-2.63381 2.65516,-5.00155 5.49329,-5.00155 2.83814,0 0.53161,0.27407 0.53161,2.90788 z"
             id="path3969"
             inkscape:connector-curvature="0"
             sodipodi:nodetypes="sssss" />
        </g>
      </g>
      <rect
         y="516.89124"
         x="275.5553"
         height="32"
         width="32"
         id="rect4009"
         style="fill:none;stroke:none" />
    </g>
    <g
       inkscape:export-ydpi="90"
       inkscape:export-xdpi="90"
       inkscape:export-filename="C:\Users\Mike\Documents\html5\TileTest\assets\goblin.png"
       transform="matrix(-1,0,0,1,424.66516,35.922662)"
       id="g4031">
      <rect
         y="517.22821"
         x="198.8548"
         height="32"
         width="32"
         id="rect4033"
         style="fill:none;stroke:none" />
      <g
         id="g4035"
         transform="translate(0.80160014,3.8248404)">
        <path
           sodipodi:nodetypes="sssss"
           inkscape:connector-curvature="0"
           id="path4037"
           d="m 224.27958,537.57224 c 0,2.6338 -1.23754,4.30366 -4.07567,4.30366 -2.83813,0 -1.24042,-3.5309 -1.24042,-6.16471 0,-2.6338 -1.59771,-3.37314 1.24042,-3.37314 2.83813,0 4.07567,2.60038 4.07567,5.23419 z"
           style="fill:#52b052;fill-opacity:1;fill-rule:nonzero;stroke:#000000;stroke-width:1;stroke-miterlimit:4;stroke-opacity:1;stroke-dasharray:none" />
        <path
           style="fill:#52b052;fill-opacity:1;fill-rule:nonzero;stroke:#000000;stroke-width:1;stroke-miterlimit:4;stroke-opacity:1;stroke-dasharray:none"
           d="m 211.32674,529.53855 c -1.27415,0 -2.30241,0.77503 -2.30241,1.74158 l 0,6.03079 c 0,0.33753 0.12281,0.64751 0.33988,0.91397 -0.1902,0.0853 -0.32892,0.23768 -0.32892,0.41741 l 0,5.7645 c 0,0.27152 0.29795,0.49657 0.65784,0.49657 l 3.36591,0 c 1.02549,-2.7858 2.03129,-5.75084 3.85928,0 l 3.51941,0 c 0.35988,0 0.64687,-0.22505 0.64687,-0.49657 l 0,-5.7645 c 0,-0.17973 -0.12775,-0.33211 -0.31795,-0.41741 0.21707,-0.26646 0.33988,-0.57644 0.33988,-0.91397 l 0,-6.03079 c 0,-0.96655 -1.02826,-1.74158 -2.30242,-1.74158 l -7.47737,0 z"
           id="path4039"
           inkscape:connector-curvature="0" />
        <path
           inkscape:connector-curvature="0"
           style="fill:#52b052;fill-opacity:1;fill-rule:nonzero;stroke:#000000;stroke-width:1;stroke-linecap:round;stroke-linejoin:round;stroke-miterlimit:4;stroke-opacity:1;stroke-dasharray:none"
           d="m 218.43518,516.75172 c -2.89575,0 -1.60437,1.86504 -1.3047,4.51949 -0.55477,-0.0657 -1.12677,-0.10075 -1.71037,-0.10075 -1.54832,0 -3.00386,0.24793 -4.29784,0.67649 -1.26603,-2.40262 -5.2426,-4.16686 -7.92688,-4.16686 -3.2296,0 -1.23892,2.32173 -1.23892,5.46945 0,2.51653 1.66942,4.50032 3.99085,5.19597 0.66027,3.04613 4.64968,5.39028 9.47279,5.39028 5.2848,0 9.57147,-2.81375 9.57147,-6.28266 0,-0.0482 0.002,-0.096 0,-0.14393 1.49467,-0.73642 1.76519,-2.5006 1.76519,-4.85774 0,-3.14772 -5.09199,-5.69974 -8.32159,-5.69974 z"
           id="path4041" />
        <g
           transform="matrix(-0.71122951,-0.70295988,0.70295988,-0.71122951,-45.95052,1009.5834)"
           id="g4043">
          <path
             sodipodi:nodetypes="ccccc"
             inkscape:connector-curvature="0"
             id="path4045"
             d="m 151.31074,520.08869 14.03334,0.23263 3.54406,3.11456 -17.5774,0.23263 z"
             style="fill:#b3b3b3;fill-opacity:1;fill-rule:nonzero;stroke:#000000;stroke-width:1;stroke-linecap:round;stroke-linejoin:round;stroke-miterlimit:4;stroke-opacity:1;stroke-dasharray:none" />
          <path
             sodipodi:nodetypes="sssss"
             inkscape:connector-curvature="0"
             id="path4047"
             d="m 151.31074,518.05345 c 0,2.6338 2.30653,6.62997 -0.53161,6.62997 -2.83813,0 -5.49329,-1.90249 -5.49329,-4.5363 0,-2.63381 2.65516,-5.00155 5.49329,-5.00155 2.83814,0 0.53161,0.27407 0.53161,2.90788 z"
             style="fill:#52b052;fill-opacity:1;fill-rule:nonzero;stroke:#000000;stroke-width:1;stroke-miterlimit:4;stroke-opacity:1;stroke-dasharray:none" />
        </g>
      </g>
    </g>
    <g
       inkscape:export-ydpi="90"
       inkscape:export-xdpi="90"
       inkscape:export-filename="C:\Users\Mike\Documents\html5\TileTest\assets\goblin.png"
       transform="matrix(-1,0,0,1,499.72731,34.618157)"
       id="g4049">
      <rect
         style="fill:none;stroke:none"
         id="rect4051"
         width="32"
         height="32"
         x="236.91695"
         y="518.53271" />
      <g
         id="g4053"
         transform="translate(0.73048919,5.1293448)">
        <path
           style="fill:#52b052;fill-opacity:1;fill-rule:nonzero;stroke:#000000;stroke-width:1;stroke-miterlimit:4;stroke-opacity:1;stroke-dasharray:none"
           d="m 262.41284,537.57224 c 0,2.6338 -1.23754,4.30366 -4.07567,4.30366 -2.83813,0 -1.24042,-3.5309 -1.24042,-6.16471 0,-2.6338 -1.59771,-3.37314 1.24042,-3.37314 2.83813,0 4.07567,2.60038 4.07567,5.23419 z"
           id="path4055"
           inkscape:connector-curvature="0"
           sodipodi:nodetypes="sssss" />
        <path
           inkscape:connector-curvature="0"
           id="path4057"
           d="m 249.46,529.53855 c -1.27415,0 -2.30241,0.77503 -2.30241,1.74158 l 0,6.03079 c 0,0.33753 0.12281,0.64751 0.33988,0.91397 -0.1902,0.0853 -0.32892,0.23768 -0.32892,0.41741 l 0,5.7645 c 0,0.27152 0.29795,0.49657 0.65784,0.49657 l 3.36591,0 c 1.02549,-2.7858 2.03129,-5.75084 3.85928,0 l 3.51941,0 c 0.35988,0 0.64687,-0.22505 0.64687,-0.49657 l 0,-5.7645 c 0,-0.17973 -0.12775,-0.33211 -0.31795,-0.41741 0.21707,-0.26646 0.33988,-0.57644 0.33988,-0.91397 l 0,-6.03079 c 0,-0.96655 -1.02826,-1.74158 -2.30242,-1.74158 l -7.47737,0 z"
           style="fill:#52b052;fill-opacity:1;fill-rule:nonzero;stroke:#000000;stroke-width:1;stroke-miterlimit:4;stroke-opacity:1;stroke-dasharray:none" />
        <path
           id="path4059"
           d="m 256.56844,516.75172 c -2.89575,0 -1.60437,1.86504 -1.3047,4.51949 -0.55477,-0.0657 -1.12677,-0.10075 -1.71037,-0.10075 -1.54832,0 -3.00386,0.24793 -4.29784,0.67649 -1.26603,-2.40262 -5.2426,-4.16686 -7.92688,-4.16686 -3.2296,0 -1.23892,2.32173 -1.23892,5.46945 0,2.51653 1.66942,4.50032 3.99085,5.19597 0.66027,3.04613 4.64968,5.39028 9.47279,5.39028 5.2848,0 9.57147,-2.81375 9.57147,-6.28266 0,-0.0482 0.002,-0.096 0,-0.14393 1.49467,-0.73642 1.76519,-2.5006 1.76519,-4.85774 0,-3.14772 -5.09199,-5.69974 -8.32159,-5.69974 z"
           style="fill:#52b052;fill-opacity:1;fill-rule:nonzero;stroke:#000000;stroke-width:1;stroke-linecap:round;stroke-linejoin:round;stroke-miterlimit:4;stroke-opacity:1;stroke-dasharray:none"
           inkscape:connector-curvature="0" />
        <g
           id="g4061"
           transform="matrix(0.1007929,-0.99490743,0.99490743,0.1007929,-280.6796,632.29846)">
          <path
             style="fill:#b3b3b3;fill-opacity:1;fill-rule:nonzero;stroke:#000000;stroke-width:1;stroke-linecap:round;stroke-linejoin:round;stroke-miterlimit:4;stroke-opacity:1;stroke-dasharray:none"
             d="m 151.31074,520.08869 14.03334,0.23263 3.54406,3.11456 -17.5774,0.23263 z"
             id="path4063"
             inkscape:connector-curvature="0"
             sodipodi:nodetypes="ccccc" />
          <path
             style="fill:#52b052;fill-opacity:1;fill-rule:nonzero;stroke:#000000;stroke-width:1;stroke-miterlimit:4;stroke-opacity:1;stroke-dasharray:none"
             d="m 151.31074,518.05345 c 0,2.6338 2.30653,6.62997 -0.53161,6.62997 -2.83813,0 -5.49329,-1.90249 -5.49329,-4.5363 0,-2.63381 2.65516,-5.00155 5.49329,-5.00155 2.83814,0 0.53161,0.27407 0.53161,2.90788 z"
             id="path4065"
             inkscape:connector-curvature="0"
             sodipodi:nodetypes="sssss" />
        </g>
      </g>
    </g>
    <g
       inkscape:export-ydpi="90"
       inkscape:export-xdpi="90"
       inkscape:export-filename="C:\Users\Mike\Documents\html5\TileTest\assets\goblin.png"
       transform="matrix(-1,0,0,1,575.36566,36.259637)"
       id="g4067">
      <g
         id="g4069"
         transform="translate(-1.1638864,3.9929454)">
        <path
           sodipodi:nodetypes="sssss"
           inkscape:connector-curvature="0"
           id="path4071"
           d="m 302.31387,537.06716 c 0,2.6338 -1.23754,4.30366 -4.07567,4.30366 -2.83813,0 -1.24042,-3.5309 -1.24042,-6.16471 0,-2.6338 -1.59771,-3.37314 1.24042,-3.37314 2.83813,0 4.07567,2.60038 4.07567,5.23419 z"
           style="fill:#52b052;fill-opacity:1;fill-rule:nonzero;stroke:#000000;stroke-width:1;stroke-miterlimit:4;stroke-opacity:1;stroke-dasharray:none" />
        <path
           style="fill:#52b052;fill-opacity:1;fill-rule:nonzero;stroke:#000000;stroke-width:1;stroke-miterlimit:4;stroke-opacity:1;stroke-dasharray:none"
           d="m 289.36103,529.03347 c -1.27415,0 -2.30241,0.77503 -2.30241,1.74158 l 0,6.03079 c 0,0.33753 0.12281,0.64751 0.33988,0.91397 -0.1902,0.0853 -0.32892,0.23768 -0.32892,0.41741 l 0,5.7645 c 0,0.27152 0.29795,0.49657 0.65784,0.49657 l 3.36591,0 c 1.02549,-2.7858 2.03129,-5.75084 3.85928,0 l 3.51941,0 c 0.35988,0 0.64687,-0.22505 0.64687,-0.49657 l 0,-5.7645 c 0,-0.17973 -0.12775,-0.33211 -0.31795,-0.41741 0.21707,-0.26646 0.33988,-0.57644 0.33988,-0.91397 l 0,-6.03079 c 0,-0.96655 -1.02826,-1.74158 -2.30242,-1.74158 l -7.47737,0 z"
           id="path4073"
           inkscape:connector-curvature="0" />
        <path
           inkscape:connector-curvature="0"
           style="fill:#52b052;fill-opacity:1;fill-rule:nonzero;stroke:#000000;stroke-width:1;stroke-linecap:round;stroke-linejoin:round;stroke-miterlimit:4;stroke-opacity:1;stroke-dasharray:none"
           d="m 296.46947,516.24664 c -2.89575,0 -1.60437,1.86504 -1.3047,4.51949 -0.55477,-0.0657 -1.12677,-0.10075 -1.71037,-0.10075 -1.54832,0 -3.00386,0.24793 -4.29784,0.67649 -1.26603,-2.40262 -5.2426,-4.16686 -7.92688,-4.16686 -3.2296,0 -1.23892,2.32173 -1.23892,5.46945 0,2.51653 1.66942,4.50032 3.99085,5.19597 0.66027,3.04613 4.64968,5.39028 9.47279,5.39028 5.2848,0 9.57147,-2.81375 9.57147,-6.28266 0,-0.0482 0.002,-0.096 0,-0.14393 1.49467,-0.73642 1.76519,-2.5006 1.76519,-4.85774 0,-3.14772 -5.09199,-5.69974 -8.32159,-5.69974 z"
           id="path4075" />
        <g
           transform="matrix(0.69210325,-0.72179852,0.72179852,0.69210325,-188.64882,285.17074)"
           id="g4077">
          <path
             sodipodi:nodetypes="ccccc"
             inkscape:connector-curvature="0"
             id="path4079"
             d="m 151.31074,520.08869 14.03334,0.23263 3.54406,3.11456 -17.5774,0.23263 z"
             style="fill:#b3b3b3;fill-opacity:1;fill-rule:nonzero;stroke:#000000;stroke-width:1;stroke-linecap:round;stroke-linejoin:round;stroke-miterlimit:4;stroke-opacity:1;stroke-dasharray:none" />
          <path
             sodipodi:nodetypes="sssss"
             inkscape:connector-curvature="0"
             id="path4081"
             d="m 151.31074,518.05345 c 0,2.6338 2.30653,6.62997 -0.53161,6.62997 -2.83813,0 -5.49329,-1.90249 -5.49329,-4.5363 0,-2.63381 2.65516,-5.00155 5.49329,-5.00155 2.83814,0 0.53161,0.27407 0.53161,2.90788 z"
             style="fill:#52b052;fill-opacity:1;fill-rule:nonzero;stroke:#000000;stroke-width:1;stroke-miterlimit:4;stroke-opacity:1;stroke-dasharray:none" />
        </g>
      </g>
      <rect
         style="fill:none;stroke:none"
         id="rect4083"
         width="32"
         height="32"
         x="275.5553"
         y="516.89124" />
    </g>
    <g
       style="display:inline"
       transform="matrix(0.08816948,0,0,0.08802506,341.06525,488.52575)"
       id="g4231"
       inkscape:export-filename="C:\Users\Mike\Documents\html5\TileTest\assets\blue_arrow.png"
       inkscape:export-xdpi="90"
       inkscape:export-ydpi="90">
      <g
         id="g4233"
         transform="matrix(0.69968784,0,0,0.69968784,14.25512,319.8779)">
        <g
           id="g4235">
          <rect
             style="fill:#5599ff;fill-opacity:1;fill-rule:nonzero;stroke:#000000;stroke-width:4.16588593;stroke-linecap:round;stroke-linejoin:round;stroke-miterlimit:4;stroke-opacity:1;stroke-dasharray:none"
             id="rect4237"
             width="18.36297"
             height="74.982124"
             x="-591.7041"
             y="557.3736"
             rx="7.5743384"
             ry="7.5743384"
             transform="matrix(0.70710678,-0.70710678,0.70710678,0.70710678,0,0)" />
          <rect
             transform="matrix(0.70710678,-0.70710678,0.70710678,0.70710678,0,0)"
             ry="7.5743384"
             rx="7.5743384"
             y="538.34546"
             x="-610.73224"
             height="74.982124"
             width="18.36297"
             id="rect4239"
             style="fill:#5599ff;fill-opacity:1;fill-rule:nonzero;stroke:#000000;stroke-width:4.16588593;stroke-linecap:round;stroke-linejoin:round;stroke-miterlimit:4;stroke-opacity:1;stroke-dasharray:none" />
        </g>
        <rect
           transform="matrix(0.70710678,-0.70710678,0.70710678,0.70710678,0,0)"
           ry="7.5743384"
           rx="7.5743384"
           y="576.40167"
           x="-572.67603"
           height="74.982124"
           width="18.36297"
           id="rect4241"
           style="fill:#5599ff;fill-opacity:1;fill-rule:nonzero;stroke:#000000;stroke-width:4.16588593;stroke-linecap:round;stroke-linejoin:round;stroke-miterlimit:4;stroke-opacity:1;stroke-dasharray:none" />
      </g>
      <g
         id="g4243"
         transform="matrix(0.69220203,0.21042858,-0.21042858,0.69220203,83.76054,419.60806)">
        <rect
           style="fill:#5599ff;fill-opacity:1;fill-rule:nonzero;stroke:#000000;stroke-width:4.16588593;stroke-linecap:round;stroke-linejoin:round;stroke-miterlimit:4;stroke-opacity:1;stroke-dasharray:none"
           id="rect4245"
           width="18.36297"
           height="74.982124"
           x="457.58301"
           y="524.8819"
           rx="7.5743384"
           ry="7.5743384"
           transform="matrix(0.8660254,0.5,-0.5,0.8660254,0,0)"
           d="m -586.2511,555.25226 3.21429,0 c 4.19619,0 7.57434,3.37815 7.57434,7.57434 l 0,59.83344 c 0,4.19619 -3.37815,7.57434 -7.57434,7.57434 l -3.21429,0 c -4.19618,0 -7.57434,-3.37815 -7.57434,-7.57434 l 0,-59.83344 c 0,-4.19619 3.37816,-7.57434 7.57434,-7.57434 z" />
        <rect
           transform="matrix(0.8660254,0.5,-0.5,0.8660254,0,0)"
           ry="7.5743384"
           rx="7.5743384"
           y="535.896"
           x="438.50607"
           height="74.982124"
           width="18.36297"
           id="rect4247"
           style="fill:#5599ff;fill-opacity:1;fill-rule:nonzero;stroke:#000000;stroke-width:4.16588593;stroke-linecap:round;stroke-linejoin:round;stroke-miterlimit:4;stroke-opacity:1;stroke-dasharray:none"
           d="m -603.1579,538.34546 3.21429,0 c 4.19619,0 7.57434,3.37815 7.57434,7.57434 l 0,59.83344 c 0,4.19619 -3.37815,7.57434 -7.57434,7.57434 l -3.21429,0 c -4.19618,0 -7.57434,-3.37815 -7.57434,-7.57434 l 0,-59.83344 c 0,-4.19619 3.37816,-7.57434 7.57434,-7.57434 z" />
        <rect
           style="fill:#5599ff;fill-opacity:1;fill-rule:nonzero;stroke:#000000;stroke-width:4.16588593;stroke-linecap:round;stroke-linejoin:round;stroke-miterlimit:4;stroke-opacity:1;stroke-dasharray:none"
           id="rect4249"
           width="18.36297"
           height="74.982124"
           x="476.65997"
           y="513.8678"
           rx="7.5743384"
           ry="7.5743384"
           transform="matrix(0.8660254,0.5,-0.5,0.8660254,0,0)"
           d="m -569.3443,572.15906 3.21429,0 c 4.19619,0 7.57434,3.37815 7.57434,7.57434 l 0,59.83344 c 0,4.19619 -3.37815,7.57434 -7.57434,7.57434 l -3.21429,0 c -4.19619,0 -7.57434,-3.37815 -7.57434,-7.57434 l 0,-59.83344 c 0,-4.19619 3.37815,-7.57434 7.57434,-7.57434 z" />
      </g>
      <rect
         style="fill:#803300;fill-opacity:1;fill-rule:nonzero;stroke:#000000;stroke-width:4.12507153;stroke-linecap:round;stroke-linejoin:round;stroke-miterlimit:4;stroke-opacity:1;stroke-dasharray:none"
         id="rect4251"
         width="203.16655"
         height="21.924061"
         x="-3.4314878"
         y="912.17328"
         rx="10"
         ry="10" />
      <path
         style="fill:#999999;fill-opacity:1;fill-rule:nonzero;stroke:#000000;stroke-width:4.87784672;stroke-linecap:round;stroke-linejoin:round;stroke-miterlimit:4;stroke-opacity:1"
         inkscape:transform-center-x="-8.7828487"
         inkscape:transform-center-y="-9.4461393"
         d="m 184.44342,959.1822 c -6.82566,-3.65948 13.53283,-19.98872 12.98166,-36.48299 -0.55646,-16.65267 -21.95823,-33.47355 -15.31298,-37.5942 13.22728,-8.20209 64.82881,19.46341 65.31839,35.01962 0.48957,15.55621 -49.27021,46.41169 -62.98707,39.05757 z"
         id="path4253"
         inkscape:connector-curvature="0"
         sodipodi:nodetypes="sssss" />
    </g>
    <path
       style="fill:#999999;fill-opacity:1;fill-rule:nonzero;stroke:#000000;stroke-width:2.77240133;stroke-linecap:round;stroke-linejoin:round;stroke-miterlimit:4;stroke-opacity:1"
       d="m 90.5,469.99925 c 0,9.78703 -9.290091,8.75374 -20.75,8.75374 -11.459909,0 -20.75,1.03329 -20.75,-8.75374 0,-9.78703 9.290091,-21.13707 20.75,-21.13707 11.459909,0 20.75,11.35004 20.75,21.13707 z"
       id="path3118"
       inkscape:connector-curvature="0"
       sodipodi:nodetypes="sssss" />
    <g
       id="g5808"
       transform="matrix(0.85642897,0,0,1.0175276,27.946271,-19.545746)"
       inkscape:export-filename="C:\Users\Mike\Documents\html5\TileTest\assets\javelin.png"
       inkscape:export-xdpi="90"
       inkscape:export-ydpi="90">
      <g
         inkscape:export-ydpi="90"
         inkscape:export-xdpi="90"
         inkscape:export-filename="C:\Users\Mike\Documents\html5\TileTest\assets\javelin.png"
         transform="matrix(0.76163089,0,0,2.0961771,90.420092,-649.22104)"
         id="g5804">
        <path
           style="fill:#803300;fill-opacity:1;fill-rule:nonzero;stroke:#000000;stroke-width:0.43556115;stroke-linecap:round;stroke-linejoin:round;stroke-miterlimit:4;stroke-opacity:1"
           d="m 355.25807,590.8676 34.88859,0 c 1.05523,0 1.90475,0.26106 1.90475,0.58533 l 0,0.11262 c 0,0.32427 -0.84952,0.58532 -1.90475,0.58532 l -34.88859,0 c -1.05524,0 -1.74572,-0.24936 -1.74572,-0.62993 0,-0.38058 0.69048,-0.65334 1.74572,-0.65334 z"
           id="rect5272"
           inkscape:connector-curvature="0"
           sodipodi:nodetypes="sssssscs" />
        <path
           style="fill:#999999;fill-opacity:1;fill-rule:nonzero;stroke:#000000;stroke-width:0.41750455;stroke-linecap:round;stroke-linejoin:round;stroke-miterlimit:4;stroke-opacity:1"
           inkscape:transform-center-x="-15.773944"
           inkscape:transform-center-y="-4.577867"
           d="m 388.1415,593.21797 c -0.30107,-1.16485 -0.50532,-3.26196 0.16668,-3.40033 2.11107,-0.3765 10.34661,0.89342 10.42476,1.60749 0.0782,0.71406 -8.40223,2.13041 -10.59144,1.79284 z"
           id="path5274"
           inkscape:connector-curvature="0"
           sodipodi:nodetypes="ccsc" />
      </g>
    </g>
  </g>
</svg>
